<?xml version='1.0' encoding='UTF-8'?>
<svg xmlns:svg="http://www.w3.org/2000/svg" width="98mm" height="98mm" version="1.1" xmlns="http://www.w3.org/2000/svg"><svg:rect x="8mm" y="8mm" width="2mm" height="2mm" /><svg:rect x="10mm" y="8mm" width="2mm" height="2mm" /><svg:rect x="12mm" y="8mm" width="2mm" height="2mm" /><svg:rect x="14mm" y="8mm" width="2mm" height="2mm" /><svg:rect x="16mm" y="8mm" width="2mm" height="2mm" /><svg:rect x="18mm" y="8mm" width="2mm" height="2mm" /><svg:rect x="20mm" y="8mm" width="2mm" height="2mm" /><svg:rect x="24mm" y="8mm" width="2mm" height="2mm" /><svg:rect x="32mm" y="8mm" width="2mm" height="2mm" /><svg:rect x="36mm" y="8mm" width="2mm" height="2mm" /><svg:rect x="38mm" y="8mm" width="2mm" height="2mm" /><svg:rect x="40mm" y="8mm" width="2mm" height="2mm" /><svg:rect x="44mm" y="8mm" width="2mm" height="2mm" /><svg:rect x="54mm" y="8mm" width="2mm" height="2mm" /><svg:rect x="56mm" y="8mm" width="2mm" height="2mm" /><svg:rect x="64mm" y="8mm" width="2mm" height="2mm" /><svg:rect x="66mm" y="8mm" width="2mm" height="2mm" /><svg:rect x="68mm" y="8mm" width="2mm" height="2mm" /><svg:rect x="72mm" y="8mm" width="2mm" height="2mm" /><svg:rect x="76mm" y="8mm" width="2mm" height="2mm" /><svg:rect x="78mm" y="8mm" width="2mm" height="2mm" /><svg:rect x="80mm" y="8mm" width="2mm" height="2mm" /><svg:rect x="82mm" y="8mm" width="2mm" height="2mm" /><svg:rect x="84mm" y="8mm" width="2mm" height="2mm" /><svg:rect x="86mm" y="8mm" width="2mm" height="2mm" /><svg:rect x="88mm" y="8mm" width="2mm" height="2mm" /><svg:rect x="8mm" y="10mm" width="2mm" height="2mm" /><svg:rect x="20mm" y="10mm" width="2mm" height="2mm" /><svg:rect x="24mm" y="10mm" width="2mm" height="2mm" /><svg:rect x="26mm" y="10mm" width="2mm" height="2mm" /><svg:rect x="28mm" y="10mm" width="2mm" height="2mm" /><svg:rect x="32mm" y="10mm" width="2mm" height="2mm" /><svg:rect x="34mm" y="10mm" width="2mm" height="2mm" /><svg:rect x="36mm" y="10mm" width="2mm" height="2mm" /><svg:rect x="40mm" y="10mm" width="2mm" height="2mm" /><svg:rect x="42mm" y="10mm" width="2mm" height="2mm" /><svg:rect x="44mm" y="10mm" width="2mm" height="2mm" /><svg:rect x="56mm" y="10mm" width="2mm" height="2mm" /><svg:rect x="62mm" y="10mm" width="2mm" height="2mm" /><svg:rect x="68mm" y="10mm" width="2mm" height="2mm" /><svg:rect x="72mm" y="10mm" width="2mm" height="2mm" /><svg:rect x="76mm" y="10mm" width="2mm" height="2mm" /><svg:rect x="88mm" y="10mm" width="2mm" height="2mm" /><svg:rect x="8mm" y="12mm" width="2mm" height="2mm" /><svg:rect x="12mm" y="12mm" width="2mm" height="2mm" /><svg:rect x="14mm" y="12mm" width="2mm" height="2mm" /><svg:rect x="16mm" y="12mm" width="2mm" height="2mm" /><svg:rect x="20mm" y="12mm" width="2mm" height="2mm" /><svg:rect x="24mm" y="12mm" width="2mm" height="2mm" /><svg:rect x="32mm" y="12mm" width="2mm" height="2mm" /><svg:rect x="34mm" y="12mm" width="2mm" height="2mm" /><svg:rect x="36mm" y="12mm" width="2mm" height="2mm" /><svg:rect x="38mm" y="12mm" width="2mm" height="2mm" /><svg:rect x="40mm" y="12mm" width="2mm" height="2mm" /><svg:rect x="44mm" y="12mm" width="2mm" height="2mm" /><svg:rect x="48mm" y="12mm" width="2mm" height="2mm" /><svg:rect x="50mm" y="12mm" width="2mm" height="2mm" /><svg:rect x="54mm" y="12mm" width="2mm" height="2mm" /><svg:rect x="56mm" y="12mm" width="2mm" height="2mm" /><svg:rect x="60mm" y="12mm" width="2mm" height="2mm" /><svg:rect x="64mm" y="12mm" width="2mm" height="2mm" /><svg:rect x="68mm" y="12mm" width="2mm" height="2mm" /><svg:rect x="70mm" y="12mm" width="2mm" height="2mm" /><svg:rect x="76mm" y="12mm" width="2mm" height="2mm" /><svg:rect x="80mm" y="12mm" width="2mm" height="2mm" /><svg:rect x="82mm" y="12mm" width="2mm" height="2mm" /><svg:rect x="84mm" y="12mm" width="2mm" height="2mm" /><svg:rect x="88mm" y="12mm" width="2mm" height="2mm" /><svg:rect x="8mm" y="14mm" width="2mm" height="2mm" /><svg:rect x="12mm" y="14mm" width="2mm" height="2mm" /><svg:rect x="14mm" y="14mm" width="2mm" height="2mm" /><svg:rect x="16mm" y="14mm" width="2mm" height="2mm" /><svg:rect x="20mm" y="14mm" width="2mm" height="2mm" /><svg:rect x="26mm" y="14mm" width="2mm" height="2mm" /><svg:rect x="30mm" y="14mm" width="2mm" height="2mm" /><svg:rect x="32mm" y="14mm" width="2mm" height="2mm" /><svg:rect x="34mm" y="14mm" width="2mm" height="2mm" /><svg:rect x="36mm" y="14mm" width="2mm" height="2mm" /><svg:rect x="38mm" y="14mm" width="2mm" height="2mm" /><svg:rect x="42mm" y="14mm" width="2mm" height="2mm" /><svg:rect x="52mm" y="14mm" width="2mm" height="2mm" /><svg:rect x="66mm" y="14mm" width="2mm" height="2mm" /><svg:rect x="76mm" y="14mm" width="2mm" height="2mm" /><svg:rect x="80mm" y="14mm" width="2mm" height="2mm" /><svg:rect x="82mm" y="14mm" width="2mm" height="2mm" /><svg:rect x="84mm" y="14mm" width="2mm" height="2mm" /><svg:rect x="88mm" y="14mm" width="2mm" height="2mm" /><svg:rect x="8mm" y="16mm" width="2mm" height="2mm" /><svg:rect x="12mm" y="16mm" width="2mm" height="2mm" /><svg:rect x="14mm" y="16mm" width="2mm" height="2mm" /><svg:rect x="16mm" y="16mm" width="2mm" height="2mm" /><svg:rect x="20mm" y="16mm" width="2mm" height="2mm" /><svg:rect x="28mm" y="16mm" width="2mm" height="2mm" /><svg:rect x="34mm" y="16mm" width="2mm" height="2mm" /><svg:rect x="38mm" y="16mm" width="2mm" height="2mm" /><svg:rect x="46mm" y="16mm" width="2mm" height="2mm" /><svg:rect x="50mm" y="16mm" width="2mm" height="2mm" /><svg:rect x="54mm" y="16mm" width="2mm" height="2mm" /><svg:rect x="60mm" y="16mm" width="2mm" height="2mm" /><svg:rect x="64mm" y="16mm" width="2mm" height="2mm" /><svg:rect x="66mm" y="16mm" width="2mm" height="2mm" /><svg:rect x="70mm" y="16mm" width="2mm" height="2mm" /><svg:rect x="76mm" y="16mm" width="2mm" height="2mm" /><svg:rect x="80mm" y="16mm" width="2mm" height="2mm" /><svg:rect x="82mm" y="16mm" width="2mm" height="2mm" /><svg:rect x="84mm" y="16mm" width="2mm" height="2mm" /><svg:rect x="88mm" y="16mm" width="2mm" height="2mm" /><svg:rect x="8mm" y="18mm" width="2mm" height="2mm" /><svg:rect x="20mm" y="18mm" width="2mm" height="2mm" /><svg:rect x="24mm" y="18mm" width="2mm" height="2mm" /><svg:rect x="38mm" y="18mm" width="2mm" height="2mm" /><svg:rect x="40mm" y="18mm" width="2mm" height="2mm" /><svg:rect x="42mm" y="18mm" width="2mm" height="2mm" /><svg:rect x="44mm" y="18mm" width="2mm" height="2mm" /><svg:rect x="50mm" y="18mm" width="2mm" height="2mm" /><svg:rect x="52mm" y="18mm" width="2mm" height="2mm" /><svg:rect x="54mm" y="18mm" width="2mm" height="2mm" /><svg:rect x="56mm" y="18mm" width="2mm" height="2mm" /><svg:rect x="58mm" y="18mm" width="2mm" height="2mm" /><svg:rect x="62mm" y="18mm" width="2mm" height="2mm" /><svg:rect x="66mm" y="18mm" width="2mm" height="2mm" /><svg:rect x="76mm" y="18mm" width="2mm" height="2mm" /><svg:rect x="88mm" y="18mm" width="2mm" height="2mm" /><svg:rect x="8mm" y="20mm" width="2mm" height="2mm" /><svg:rect x="10mm" y="20mm" width="2mm" height="2mm" /><svg:rect x="12mm" y="20mm" width="2mm" height="2mm" /><svg:rect x="14mm" y="20mm" width="2mm" height="2mm" /><svg:rect x="16mm" y="20mm" width="2mm" height="2mm" /><svg:rect x="18mm" y="20mm" width="2mm" height="2mm" /><svg:rect x="20mm" y="20mm" width="2mm" height="2mm" /><svg:rect x="24mm" y="20mm" width="2mm" height="2mm" /><svg:rect x="28mm" y="20mm" width="2mm" height="2mm" /><svg:rect x="32mm" y="20mm" width="2mm" height="2mm" /><svg:rect x="36mm" y="20mm" width="2mm" height="2mm" /><svg:rect x="40mm" y="20mm" width="2mm" height="2mm" /><svg:rect x="44mm" y="20mm" width="2mm" height="2mm" /><svg:rect x="48mm" y="20mm" width="2mm" height="2mm" /><svg:rect x="52mm" y="20mm" width="2mm" height="2mm" /><svg:rect x="56mm" y="20mm" width="2mm" height="2mm" /><svg:rect x="60mm" y="20mm" width="2mm" height="2mm" /><svg:rect x="64mm" y="20mm" width="2mm" height="2mm" /><svg:rect x="68mm" y="20mm" width="2mm" height="2mm" /><svg:rect x="72mm" y="20mm" width="2mm" height="2mm" /><svg:rect x="76mm" y="20mm" width="2mm" height="2mm" /><svg:rect x="78mm" y="20mm" width="2mm" height="2mm" /><svg:rect x="80mm" y="20mm" width="2mm" height="2mm" /><svg:rect x="82mm" y="20mm" width="2mm" height="2mm" /><svg:rect x="84mm" y="20mm" width="2mm" height="2mm" /><svg:rect x="86mm" y="20mm" width="2mm" height="2mm" /><svg:rect x="88mm" y="20mm" width="2mm" height="2mm" /><svg:rect x="24mm" y="22mm" width="2mm" height="2mm" /><svg:rect x="26mm" y="22mm" width="2mm" height="2mm" /><svg:rect x="30mm" y="22mm" width="2mm" height="2mm" /><svg:rect x="36mm" y="22mm" width="2mm" height="2mm" /><svg:rect x="38mm" y="22mm" width="2mm" height="2mm" /><svg:rect x="44mm" y="22mm" width="2mm" height="2mm" /><svg:rect x="46mm" y="22mm" width="2mm" height="2mm" /><svg:rect x="48mm" y="22mm" width="2mm" height="2mm" /><svg:rect x="50mm" y="22mm" width="2mm" height="2mm" /><svg:rect x="58mm" y="22mm" width="2mm" height="2mm" /><svg:rect x="60mm" y="22mm" width="2mm" height="2mm" /><svg:rect x="62mm" y="22mm" width="2mm" height="2mm" /><svg:rect x="64mm" y="22mm" width="2mm" height="2mm" /><svg:rect x="68mm" y="22mm" width="2mm" height="2mm" /><svg:rect x="70mm" y="22mm" width="2mm" height="2mm" /><svg:rect x="12mm" y="24mm" width="2mm" height="2mm" /><svg:rect x="14mm" y="24mm" width="2mm" height="2mm" /><svg:rect x="16mm" y="24mm" width="2mm" height="2mm" /><svg:rect x="20mm" y="24mm" width="2mm" height="2mm" /><svg:rect x="24mm" y="24mm" width="2mm" height="2mm" /><svg:rect x="32mm" y="24mm" width="2mm" height="2mm" /><svg:rect x="36mm" y="24mm" width="2mm" height="2mm" /><svg:rect x="40mm" y="24mm" width="2mm" height="2mm" /><svg:rect x="44mm" y="24mm" width="2mm" height="2mm" /><svg:rect x="46mm" y="24mm" width="2mm" height="2mm" /><svg:rect x="48mm" y="24mm" width="2mm" height="2mm" /><svg:rect x="50mm" y="24mm" width="2mm" height="2mm" /><svg:rect x="54mm" y="24mm" width="2mm" height="2mm" /><svg:rect x="66mm" y="24mm" width="2mm" height="2mm" /><svg:rect x="74mm" y="24mm" width="2mm" height="2mm" /><svg:rect x="76mm" y="24mm" width="2mm" height="2mm" /><svg:rect x="78mm" y="24mm" width="2mm" height="2mm" /><svg:rect x="84mm" y="24mm" width="2mm" height="2mm" /><svg:rect x="86mm" y="24mm" width="2mm" height="2mm" /><svg:rect x="88mm" y="24mm" width="2mm" height="2mm" /><svg:rect x="10mm" y="26mm" width="2mm" height="2mm" /><svg:rect x="12mm" y="26mm" width="2mm" height="2mm" /><svg:rect x="14mm" y="26mm" width="2mm" height="2mm" /><svg:rect x="16mm" y="26mm" width="2mm" height="2mm" /><svg:rect x="18mm" y="26mm" width="2mm" height="2mm" /><svg:rect x="22mm" y="26mm" width="2mm" height="2mm" /><svg:rect x="26mm" y="26mm" width="2mm" height="2mm" /><svg:rect x="28mm" y="26mm" width="2mm" height="2mm" /><svg:rect x="30mm" y="26mm" width="2mm" height="2mm" /><svg:rect x="36mm" y="26mm" width="2mm" height="2mm" /><svg:rect x="38mm" y="26mm" width="2mm" height="2mm" /><svg:rect x="40mm" y="26mm" width="2mm" height="2mm" /><svg:rect x="44mm" y="26mm" width="2mm" height="2mm" /><svg:rect x="48mm" y="26mm" width="2mm" height="2mm" /><svg:rect x="52mm" y="26mm" width="2mm" height="2mm" /><svg:rect x="54mm" y="26mm" width="2mm" height="2mm" /><svg:rect x="56mm" y="26mm" width="2mm" height="2mm" /><svg:rect x="58mm" y="26mm" width="2mm" height="2mm" /><svg:rect x="64mm" y="26mm" width="2mm" height="2mm" /><svg:rect x="66mm" y="26mm" width="2mm" height="2mm" /><svg:rect x="68mm" y="26mm" width="2mm" height="2mm" /><svg:rect x="70mm" y="26mm" width="2mm" height="2mm" /><svg:rect x="72mm" y="26mm" width="2mm" height="2mm" /><svg:rect x="76mm" y="26mm" width="2mm" height="2mm" /><svg:rect x="78mm" y="26mm" width="2mm" height="2mm" /><svg:rect x="80mm" y="26mm" width="2mm" height="2mm" /><svg:rect x="84mm" y="26mm" width="2mm" height="2mm" /><svg:rect x="86mm" y="26mm" width="2mm" height="2mm" /><svg:rect x="88mm" y="26mm" width="2mm" height="2mm" /><svg:rect x="12mm" y="28mm" width="2mm" height="2mm" /><svg:rect x="16mm" y="28mm" width="2mm" height="2mm" /><svg:rect x="18mm" y="28mm" width="2mm" height="2mm" /><svg:rect x="20mm" y="28mm" width="2mm" height="2mm" /><svg:rect x="22mm" y="28mm" width="2mm" height="2mm" /><svg:rect x="24mm" y="28mm" width="2mm" height="2mm" /><svg:rect x="28mm" y="28mm" width="2mm" height="2mm" /><svg:rect x="30mm" y="28mm" width="2mm" height="2mm" /><svg:rect x="32mm" y="28mm" width="2mm" height="2mm" /><svg:rect x="36mm" y="28mm" width="2mm" height="2mm" /><svg:rect x="38mm" y="28mm" width="2mm" height="2mm" /><svg:rect x="42mm" y="28mm" width="2mm" height="2mm" /><svg:rect x="44mm" y="28mm" width="2mm" height="2mm" /><svg:rect x="46mm" y="28mm" width="2mm" height="2mm" /><svg:rect x="56mm" y="28mm" width="2mm" height="2mm" /><svg:rect x="62mm" y="28mm" width="2mm" height="2mm" /><svg:rect x="64mm" y="28mm" width="2mm" height="2mm" /><svg:rect x="66mm" y="28mm" width="2mm" height="2mm" /><svg:rect x="72mm" y="28mm" width="2mm" height="2mm" /><svg:rect x="74mm" y="28mm" width="2mm" height="2mm" /><svg:rect x="76mm" y="28mm" width="2mm" height="2mm" /><svg:rect x="78mm" y="28mm" width="2mm" height="2mm" /><svg:rect x="80mm" y="28mm" width="2mm" height="2mm" /><svg:rect x="8mm" y="30mm" width="2mm" height="2mm" /><svg:rect x="12mm" y="30mm" width="2mm" height="2mm" /><svg:rect x="14mm" y="30mm" width="2mm" height="2mm" /><svg:rect x="16mm" y="30mm" width="2mm" height="2mm" /><svg:rect x="18mm" y="30mm" width="2mm" height="2mm" /><svg:rect x="22mm" y="30mm" width="2mm" height="2mm" /><svg:rect x="26mm" y="30mm" width="2mm" height="2mm" /><svg:rect x="30mm" y="30mm" width="2mm" height="2mm" /><svg:rect x="32mm" y="30mm" width="2mm" height="2mm" /><svg:rect x="34mm" y="30mm" width="2mm" height="2mm" /><svg:rect x="38mm" y="30mm" width="2mm" height="2mm" /><svg:rect x="42mm" y="30mm" width="2mm" height="2mm" /><svg:rect x="44mm" y="30mm" width="2mm" height="2mm" /><svg:rect x="46mm" y="30mm" width="2mm" height="2mm" /><svg:rect x="48mm" y="30mm" width="2mm" height="2mm" /><svg:rect x="52mm" y="30mm" width="2mm" height="2mm" /><svg:rect x="54mm" y="30mm" width="2mm" height="2mm" /><svg:rect x="62mm" y="30mm" width="2mm" height="2mm" /><svg:rect x="64mm" y="30mm" width="2mm" height="2mm" /><svg:rect x="68mm" y="30mm" width="2mm" height="2mm" /><svg:rect x="70mm" y="30mm" width="2mm" height="2mm" /><svg:rect x="72mm" y="30mm" width="2mm" height="2mm" /><svg:rect x="78mm" y="30mm" width="2mm" height="2mm" /><svg:rect x="80mm" y="30mm" width="2mm" height="2mm" /><svg:rect x="82mm" y="30mm" width="2mm" height="2mm" /><svg:rect x="88mm" y="30mm" width="2mm" height="2mm" /><svg:rect x="10mm" y="32mm" width="2mm" height="2mm" /><svg:rect x="12mm" y="32mm" width="2mm" height="2mm" /><svg:rect x="16mm" y="32mm" width="2mm" height="2mm" /><svg:rect x="20mm" y="32mm" width="2mm" height="2mm" /><svg:rect x="24mm" y="32mm" width="2mm" height="2mm" /><svg:rect x="30mm" y="32mm" width="2mm" height="2mm" /><svg:rect x="38mm" y="32mm" width="2mm" height="2mm" /><svg:rect x="40mm" y="32mm" width="2mm" height="2mm" /><svg:rect x="44mm" y="32mm" width="2mm" height="2mm" /><svg:rect x="54mm" y="32mm" width="2mm" height="2mm" /><svg:rect x="58mm" y="32mm" width="2mm" height="2mm" /><svg:rect x="66mm" y="32mm" width="2mm" height="2mm" /><svg:rect x="70mm" y="32mm" width="2mm" height="2mm" /><svg:rect x="78mm" y="32mm" width="2mm" height="2mm" /><svg:rect x="82mm" y="32mm" width="2mm" height="2mm" /><svg:rect x="84mm" y="32mm" width="2mm" height="2mm" /><svg:rect x="86mm" y="32mm" width="2mm" height="2mm" /><svg:rect x="10mm" y="34mm" width="2mm" height="2mm" /><svg:rect x="18mm" y="34mm" width="2mm" height="2mm" /><svg:rect x="28mm" y="34mm" width="2mm" height="2mm" /><svg:rect x="32mm" y="34mm" width="2mm" height="2mm" /><svg:rect x="36mm" y="34mm" width="2mm" height="2mm" /><svg:rect x="38mm" y="34mm" width="2mm" height="2mm" /><svg:rect x="40mm" y="34mm" width="2mm" height="2mm" /><svg:rect x="42mm" y="34mm" width="2mm" height="2mm" /><svg:rect x="44mm" y="34mm" width="2mm" height="2mm" /><svg:rect x="50mm" y="34mm" width="2mm" height="2mm" /><svg:rect x="52mm" y="34mm" width="2mm" height="2mm" /><svg:rect x="54mm" y="34mm" width="2mm" height="2mm" /><svg:rect x="58mm" y="34mm" width="2mm" height="2mm" /><svg:rect x="62mm" y="34mm" width="2mm" height="2mm" /><svg:rect x="64mm" y="34mm" width="2mm" height="2mm" /><svg:rect x="68mm" y="34mm" width="2mm" height="2mm" /><svg:rect x="70mm" y="34mm" width="2mm" height="2mm" /><svg:rect x="72mm" y="34mm" width="2mm" height="2mm" /><svg:rect x="74mm" y="34mm" width="2mm" height="2mm" /><svg:rect x="76mm" y="34mm" width="2mm" height="2mm" /><svg:rect x="78mm" y="34mm" width="2mm" height="2mm" /><svg:rect x="80mm" y="34mm" width="2mm" height="2mm" /><svg:rect x="82mm" y="34mm" width="2mm" height="2mm" /><svg:rect x="86mm" y="34mm" width="2mm" height="2mm" /><svg:rect x="88mm" y="34mm" width="2mm" height="2mm" /><svg:rect x="8mm" y="36mm" width="2mm" height="2mm" /><svg:rect x="10mm" y="36mm" width="2mm" height="2mm" /><svg:rect x="16mm" y="36mm" width="2mm" height="2mm" /><svg:rect x="18mm" y="36mm" width="2mm" height="2mm" /><svg:rect x="20mm" y="36mm" width="2mm" height="2mm" /><svg:rect x="24mm" y="36mm" width="2mm" height="2mm" /><svg:rect x="28mm" y="36mm" width="2mm" height="2mm" /><svg:rect x="30mm" y="36mm" width="2mm" height="2mm" /><svg:rect x="36mm" y="36mm" width="2mm" height="2mm" /><svg:rect x="44mm" y="36mm" width="2mm" height="2mm" /><svg:rect x="46mm" y="36mm" width="2mm" height="2mm" /><svg:rect x="48mm" y="36mm" width="2mm" height="2mm" /><svg:rect x="50mm" y="36mm" width="2mm" height="2mm" /><svg:rect x="60mm" y="36mm" width="2mm" height="2mm" /><svg:rect x="66mm" y="36mm" width="2mm" height="2mm" /><svg:rect x="68mm" y="36mm" width="2mm" height="2mm" /><svg:rect x="74mm" y="36mm" width="2mm" height="2mm" /><svg:rect x="78mm" y="36mm" width="2mm" height="2mm" /><svg:rect x="80mm" y="36mm" width="2mm" height="2mm" /><svg:rect x="10mm" y="38mm" width="2mm" height="2mm" /><svg:rect x="16mm" y="38mm" width="2mm" height="2mm" /><svg:rect x="22mm" y="38mm" width="2mm" height="2mm" /><svg:rect x="24mm" y="38mm" width="2mm" height="2mm" /><svg:rect x="26mm" y="38mm" width="2mm" height="2mm" /><svg:rect x="28mm" y="38mm" width="2mm" height="2mm" /><svg:rect x="30mm" y="38mm" width="2mm" height="2mm" /><svg:rect x="34mm" y="38mm" width="2mm" height="2mm" /><svg:rect x="36mm" y="38mm" width="2mm" height="2mm" /><svg:rect x="38mm" y="38mm" width="2mm" height="2mm" /><svg:rect x="42mm" y="38mm" width="2mm" height="2mm" /><svg:rect x="46mm" y="38mm" width="2mm" height="2mm" /><svg:rect x="48mm" y="38mm" width="2mm" height="2mm" /><svg:rect x="60mm" y="38mm" width="2mm" height="2mm" /><svg:rect x="64mm" y="38mm" width="2mm" height="2mm" /><svg:rect x="70mm" y="38mm" width="2mm" height="2mm" /><svg:rect x="72mm" y="38mm" width="2mm" height="2mm" /><svg:rect x="76mm" y="38mm" width="2mm" height="2mm" /><svg:rect x="86mm" y="38mm" width="2mm" height="2mm" /><svg:rect x="88mm" y="38mm" width="2mm" height="2mm" /><svg:rect x="16mm" y="40mm" width="2mm" height="2mm" /><svg:rect x="18mm" y="40mm" width="2mm" height="2mm" /><svg:rect x="20mm" y="40mm" width="2mm" height="2mm" /><svg:rect x="22mm" y="40mm" width="2mm" height="2mm" /><svg:rect x="26mm" y="40mm" width="2mm" height="2mm" /><svg:rect x="38mm" y="40mm" width="2mm" height="2mm" /><svg:rect x="44mm" y="40mm" width="2mm" height="2mm" /><svg:rect x="50mm" y="40mm" width="2mm" height="2mm" /><svg:rect x="66mm" y="40mm" width="2mm" height="2mm" /><svg:rect x="68mm" y="40mm" width="2mm" height="2mm" /><svg:rect x="70mm" y="40mm" width="2mm" height="2mm" /><svg:rect x="74mm" y="40mm" width="2mm" height="2mm" /><svg:rect x="78mm" y="40mm" width="2mm" height="2mm" /><svg:rect x="84mm" y="40mm" width="2mm" height="2mm" /><svg:rect x="8mm" y="42mm" width="2mm" height="2mm" /><svg:rect x="12mm" y="42mm" width="2mm" height="2mm" /><svg:rect x="16mm" y="42mm" width="2mm" height="2mm" /><svg:rect x="22mm" y="42mm" width="2mm" height="2mm" /><svg:rect x="30mm" y="42mm" width="2mm" height="2mm" /><svg:rect x="34mm" y="42mm" width="2mm" height="2mm" /><svg:rect x="36mm" y="42mm" width="2mm" height="2mm" /><svg:rect x="38mm" y="42mm" width="2mm" height="2mm" /><svg:rect x="44mm" y="42mm" width="2mm" height="2mm" /><svg:rect x="46mm" y="42mm" width="2mm" height="2mm" /><svg:rect x="48mm" y="42mm" width="2mm" height="2mm" /><svg:rect x="54mm" y="42mm" width="2mm" height="2mm" /><svg:rect x="56mm" y="42mm" width="2mm" height="2mm" /><svg:rect x="58mm" y="42mm" width="2mm" height="2mm" /><svg:rect x="60mm" y="42mm" width="2mm" height="2mm" /><svg:rect x="64mm" y="42mm" width="2mm" height="2mm" /><svg:rect x="68mm" y="42mm" width="2mm" height="2mm" /><svg:rect x="72mm" y="42mm" width="2mm" height="2mm" /><svg:rect x="76mm" y="42mm" width="2mm" height="2mm" /><svg:rect x="78mm" y="42mm" width="2mm" height="2mm" /><svg:rect x="80mm" y="42mm" width="2mm" height="2mm" /><svg:rect x="82mm" y="42mm" width="2mm" height="2mm" /><svg:rect x="88mm" y="42mm" width="2mm" height="2mm" /><svg:rect x="10mm" y="44mm" width="2mm" height="2mm" /><svg:rect x="12mm" y="44mm" width="2mm" height="2mm" /><svg:rect x="20mm" y="44mm" width="2mm" height="2mm" /><svg:rect x="26mm" y="44mm" width="2mm" height="2mm" /><svg:rect x="28mm" y="44mm" width="2mm" height="2mm" /><svg:rect x="32mm" y="44mm" width="2mm" height="2mm" /><svg:rect x="34mm" y="44mm" width="2mm" height="2mm" /><svg:rect x="36mm" y="44mm" width="2mm" height="2mm" /><svg:rect x="38mm" y="44mm" width="2mm" height="2mm" /><svg:rect x="44mm" y="44mm" width="2mm" height="2mm" /><svg:rect x="50mm" y="44mm" width="2mm" height="2mm" /><svg:rect x="56mm" y="44mm" width="2mm" height="2mm" /><svg:rect x="62mm" y="44mm" width="2mm" height="2mm" /><svg:rect x="64mm" y="44mm" width="2mm" height="2mm" /><svg:rect x="72mm" y="44mm" width="2mm" height="2mm" /><svg:rect x="80mm" y="44mm" width="2mm" height="2mm" /><svg:rect x="82mm" y="44mm" width="2mm" height="2mm" /><svg:rect x="86mm" y="44mm" width="2mm" height="2mm" /><svg:rect x="12mm" y="46mm" width="2mm" height="2mm" /><svg:rect x="16mm" y="46mm" width="2mm" height="2mm" /><svg:rect x="18mm" y="46mm" width="2mm" height="2mm" /><svg:rect x="22mm" y="46mm" width="2mm" height="2mm" /><svg:rect x="24mm" y="46mm" width="2mm" height="2mm" /><svg:rect x="28mm" y="46mm" width="2mm" height="2mm" /><svg:rect x="34mm" y="46mm" width="2mm" height="2mm" /><svg:rect x="40mm" y="46mm" width="2mm" height="2mm" /><svg:rect x="42mm" y="46mm" width="2mm" height="2mm" /><svg:rect x="46mm" y="46mm" width="2mm" height="2mm" /><svg:rect x="48mm" y="46mm" width="2mm" height="2mm" /><svg:rect x="52mm" y="46mm" width="2mm" height="2mm" /><svg:rect x="56mm" y="46mm" width="2mm" height="2mm" /><svg:rect x="58mm" y="46mm" width="2mm" height="2mm" /><svg:rect x="62mm" y="46mm" width="2mm" height="2mm" /><svg:rect x="68mm" y="46mm" width="2mm" height="2mm" /><svg:rect x="72mm" y="46mm" width="2mm" height="2mm" /><svg:rect x="74mm" y="46mm" width="2mm" height="2mm" /><svg:rect x="80mm" y="46mm" width="2mm" height="2mm" /><svg:rect x="82mm" y="46mm" width="2mm" height="2mm" /><svg:rect x="12mm" y="48mm" width="2mm" height="2mm" /><svg:rect x="20mm" y="48mm" width="2mm" height="2mm" /><svg:rect x="24mm" y="48mm" width="2mm" height="2mm" /><svg:rect x="34mm" y="48mm" width="2mm" height="2mm" /><svg:rect x="38mm" y="48mm" width="2mm" height="2mm" /><svg:rect x="40mm" y="48mm" width="2mm" height="2mm" /><svg:rect x="42mm" y="48mm" width="2mm" height="2mm" /><svg:rect x="44mm" y="48mm" width="2mm" height="2mm" /><svg:rect x="46mm" y="48mm" width="2mm" height="2mm" /><svg:rect x="48mm" y="48mm" width="2mm" height="2mm" /><svg:rect x="50mm" y="48mm" width="2mm" height="2mm" /><svg:rect x="56mm" y="48mm" width="2mm" height="2mm" /><svg:rect x="60mm" y="48mm" width="2mm" height="2mm" /><svg:rect x="66mm" y="48mm" width="2mm" height="2mm" /><svg:rect x="84mm" y="48mm" width="2mm" height="2mm" /><svg:rect x="86mm" y="48mm" width="2mm" height="2mm" /><svg:rect x="10mm" y="50mm" width="2mm" height="2mm" /><svg:rect x="14mm" y="50mm" width="2mm" height="2mm" /><svg:rect x="24mm" y="50mm" width="2mm" height="2mm" /><svg:rect x="26mm" y="50mm" width="2mm" height="2mm" /><svg:rect x="32mm" y="50mm" width="2mm" height="2mm" /><svg:rect x="34mm" y="50mm" width="2mm" height="2mm" /><svg:rect x="40mm" y="50mm" width="2mm" height="2mm" /><svg:rect x="44mm" y="50mm" width="2mm" height="2mm" /><svg:rect x="46mm" y="50mm" width="2mm" height="2mm" /><svg:rect x="48mm" y="50mm" width="2mm" height="2mm" /><svg:rect x="52mm" y="50mm" width="2mm" height="2mm" /><svg:rect x="54mm" y="50mm" width="2mm" height="2mm" /><svg:rect x="60mm" y="50mm" width="2mm" height="2mm" /><svg:rect x="64mm" y="50mm" width="2mm" height="2mm" /><svg:rect x="68mm" y="50mm" width="2mm" height="2mm" /><svg:rect x="70mm" y="50mm" width="2mm" height="2mm" /><svg:rect x="72mm" y="50mm" width="2mm" height="2mm" /><svg:rect x="74mm" y="50mm" width="2mm" height="2mm" /><svg:rect x="76mm" y="50mm" width="2mm" height="2mm" /><svg:rect x="78mm" y="50mm" width="2mm" height="2mm" /><svg:rect x="80mm" y="50mm" width="2mm" height="2mm" /><svg:rect x="82mm" y="50mm" width="2mm" height="2mm" /><svg:rect x="86mm" y="50mm" width="2mm" height="2mm" /><svg:rect x="88mm" y="50mm" width="2mm" height="2mm" /><svg:rect x="8mm" y="52mm" width="2mm" height="2mm" /><svg:rect x="12mm" y="52mm" width="2mm" height="2mm" /><svg:rect x="16mm" y="52mm" width="2mm" height="2mm" /><svg:rect x="20mm" y="52mm" width="2mm" height="2mm" /><svg:rect x="24mm" y="52mm" width="2mm" height="2mm" /><svg:rect x="26mm" y="52mm" width="2mm" height="2mm" /><svg:rect x="28mm" y="52mm" width="2mm" height="2mm" /><svg:rect x="30mm" y="52mm" width="2mm" height="2mm" /><svg:rect x="32mm" y="52mm" width="2mm" height="2mm" /><svg:rect x="36mm" y="52mm" width="2mm" height="2mm" /><svg:rect x="38mm" y="52mm" width="2mm" height="2mm" /><svg:rect x="42mm" y="52mm" width="2mm" height="2mm" /><svg:rect x="46mm" y="52mm" width="2mm" height="2mm" /><svg:rect x="56mm" y="52mm" width="2mm" height="2mm" /><svg:rect x="58mm" y="52mm" width="2mm" height="2mm" /><svg:rect x="62mm" y="52mm" width="2mm" height="2mm" /><svg:rect x="64mm" y="52mm" width="2mm" height="2mm" /><svg:rect x="68mm" y="52mm" width="2mm" height="2mm" /><svg:rect x="72mm" y="52mm" width="2mm" height="2mm" /><svg:rect x="74mm" y="52mm" width="2mm" height="2mm" /><svg:rect x="82mm" y="52mm" width="2mm" height="2mm" /><svg:rect x="10mm" y="54mm" width="2mm" height="2mm" /><svg:rect x="14mm" y="54mm" width="2mm" height="2mm" /><svg:rect x="18mm" y="54mm" width="2mm" height="2mm" /><svg:rect x="22mm" y="54mm" width="2mm" height="2mm" /><svg:rect x="26mm" y="54mm" width="2mm" height="2mm" /><svg:rect x="32mm" y="54mm" width="2mm" height="2mm" /><svg:rect x="34mm" y="54mm" width="2mm" height="2mm" /><svg:rect x="38mm" y="54mm" width="2mm" height="2mm" /><svg:rect x="40mm" y="54mm" width="2mm" height="2mm" /><svg:rect x="50mm" y="54mm" width="2mm" height="2mm" /><svg:rect x="56mm" y="54mm" width="2mm" height="2mm" /><svg:rect x="58mm" y="54mm" width="2mm" height="2mm" /><svg:rect x="64mm" y="54mm" width="2mm" height="2mm" /><svg:rect x="72mm" y="54mm" width="2mm" height="2mm" /><svg:rect x="74mm" y="54mm" width="2mm" height="2mm" /><svg:rect x="78mm" y="54mm" width="2mm" height="2mm" /><svg:rect x="80mm" y="54mm" width="2mm" height="2mm" /><svg:rect x="82mm" y="54mm" width="2mm" height="2mm" /><svg:rect x="86mm" y="54mm" width="2mm" height="2mm" /><svg:rect x="8mm" y="56mm" width="2mm" height="2mm" /><svg:rect x="10mm" y="56mm" width="2mm" height="2mm" /><svg:rect x="12mm" y="56mm" width="2mm" height="2mm" /><svg:rect x="16mm" y="56mm" width="2mm" height="2mm" /><svg:rect x="20mm" y="56mm" width="2mm" height="2mm" /><svg:rect x="22mm" y="56mm" width="2mm" height="2mm" /><svg:rect x="26mm" y="56mm" width="2mm" height="2mm" /><svg:rect x="30mm" y="56mm" width="2mm" height="2mm" /><svg:rect x="32mm" y="56mm" width="2mm" height="2mm" /><svg:rect x="34mm" y="56mm" width="2mm" height="2mm" /><svg:rect x="36mm" y="56mm" width="2mm" height="2mm" /><svg:rect x="38mm" y="56mm" width="2mm" height="2mm" /><svg:rect x="44mm" y="56mm" width="2mm" height="2mm" /><svg:rect x="48mm" y="56mm" width="2mm" height="2mm" /><svg:rect x="52mm" y="56mm" width="2mm" height="2mm" /><svg:rect x="54mm" y="56mm" width="2mm" height="2mm" /><svg:rect x="56mm" y="56mm" width="2mm" height="2mm" /><svg:rect x="58mm" y="56mm" width="2mm" height="2mm" /><svg:rect x="66mm" y="56mm" width="2mm" height="2mm" /><svg:rect x="78mm" y="56mm" width="2mm" height="2mm" /><svg:rect x="82mm" y="56mm" width="2mm" height="2mm" /><svg:rect x="84mm" y="56mm" width="2mm" height="2mm" /><svg:rect x="86mm" y="56mm" width="2mm" height="2mm" /><svg:rect x="88mm" y="56mm" width="2mm" height="2mm" /><svg:rect x="8mm" y="58mm" width="2mm" height="2mm" /><svg:rect x="14mm" y="58mm" width="2mm" height="2mm" /><svg:rect x="16mm" y="58mm" width="2mm" height="2mm" /><svg:rect x="18mm" y="58mm" width="2mm" height="2mm" /><svg:rect x="30mm" y="58mm" width="2mm" height="2mm" /><svg:rect x="32mm" y="58mm" width="2mm" height="2mm" /><svg:rect x="34mm" y="58mm" width="2mm" height="2mm" /><svg:rect x="36mm" y="58mm" width="2mm" height="2mm" /><svg:rect x="38mm" y="58mm" width="2mm" height="2mm" /><svg:rect x="48mm" y="58mm" width="2mm" height="2mm" /><svg:rect x="50mm" y="58mm" width="2mm" height="2mm" /><svg:rect x="54mm" y="58mm" width="2mm" height="2mm" /><svg:rect x="56mm" y="58mm" width="2mm" height="2mm" /><svg:rect x="58mm" y="58mm" width="2mm" height="2mm" /><svg:rect x="60mm" y="58mm" width="2mm" height="2mm" /><svg:rect x="64mm" y="58mm" width="2mm" height="2mm" /><svg:rect x="66mm" y="58mm" width="2mm" height="2mm" /><svg:rect x="70mm" y="58mm" width="2mm" height="2mm" /><svg:rect x="78mm" y="58mm" width="2mm" height="2mm" /><svg:rect x="80mm" y="58mm" width="2mm" height="2mm" /><svg:rect x="82mm" y="58mm" width="2mm" height="2mm" /><svg:rect x="88mm" y="58mm" width="2mm" height="2mm" /><svg:rect x="14mm" y="60mm" width="2mm" height="2mm" /><svg:rect x="16mm" y="60mm" width="2mm" height="2mm" /><svg:rect x="18mm" y="60mm" width="2mm" height="2mm" /><svg:rect x="20mm" y="60mm" width="2mm" height="2mm" /><svg:rect x="24mm" y="60mm" width="2mm" height="2mm" /><svg:rect x="26mm" y="60mm" width="2mm" height="2mm" /><svg:rect x="28mm" y="60mm" width="2mm" height="2mm" /><svg:rect x="32mm" y="60mm" width="2mm" height="2mm" /><svg:rect x="34mm" y="60mm" width="2mm" height="2mm" /><svg:rect x="36mm" y="60mm" width="2mm" height="2mm" /><svg:rect x="44mm" y="60mm" width="2mm" height="2mm" /><svg:rect x="48mm" y="60mm" width="2mm" height="2mm" /><svg:rect x="50mm" y="60mm" width="2mm" height="2mm" /><svg:rect x="52mm" y="60mm" width="2mm" height="2mm" /><svg:rect x="54mm" y="60mm" width="2mm" height="2mm" /><svg:rect x="60mm" y="60mm" width="2mm" height="2mm" /><svg:rect x="62mm" y="60mm" width="2mm" height="2mm" /><svg:rect x="68mm" y="60mm" width="2mm" height="2mm" /><svg:rect x="72mm" y="60mm" width="2mm" height="2mm" /><svg:rect x="74mm" y="60mm" width="2mm" height="2mm" /><svg:rect x="78mm" y="60mm" width="2mm" height="2mm" /><svg:rect x="10mm" y="62mm" width="2mm" height="2mm" /><svg:rect x="12mm" y="62mm" width="2mm" height="2mm" /><svg:rect x="16mm" y="62mm" width="2mm" height="2mm" /><svg:rect x="18mm" y="62mm" width="2mm" height="2mm" /><svg:rect x="24mm" y="62mm" width="2mm" height="2mm" /><svg:rect x="26mm" y="62mm" width="2mm" height="2mm" /><svg:rect x="28mm" y="62mm" width="2mm" height="2mm" /><svg:rect x="30mm" y="62mm" width="2mm" height="2mm" /><svg:rect x="32mm" y="62mm" width="2mm" height="2mm" /><svg:rect x="38mm" y="62mm" width="2mm" height="2mm" /><svg:rect x="40mm" y="62mm" width="2mm" height="2mm" /><svg:rect x="50mm" y="62mm" width="2mm" height="2mm" /><svg:rect x="52mm" y="62mm" width="2mm" height="2mm" /><svg:rect x="54mm" y="62mm" width="2mm" height="2mm" /><svg:rect x="58mm" y="62mm" width="2mm" height="2mm" /><svg:rect x="60mm" y="62mm" width="2mm" height="2mm" /><svg:rect x="62mm" y="62mm" width="2mm" height="2mm" /><svg:rect x="70mm" y="62mm" width="2mm" height="2mm" /><svg:rect x="72mm" y="62mm" width="2mm" height="2mm" /><svg:rect x="76mm" y="62mm" width="2mm" height="2mm" /><svg:rect x="78mm" y="62mm" width="2mm" height="2mm" /><svg:rect x="82mm" y="62mm" width="2mm" height="2mm" /><svg:rect x="88mm" y="62mm" width="2mm" height="2mm" /><svg:rect x="12mm" y="64mm" width="2mm" height="2mm" /><svg:rect x="14mm" y="64mm" width="2mm" height="2mm" /><svg:rect x="16mm" y="64mm" width="2mm" height="2mm" /><svg:rect x="20mm" y="64mm" width="2mm" height="2mm" /><svg:rect x="24mm" y="64mm" width="2mm" height="2mm" /><svg:rect x="26mm" y="64mm" width="2mm" height="2mm" /><svg:rect x="30mm" y="64mm" width="2mm" height="2mm" /><svg:rect x="36mm" y="64mm" width="2mm" height="2mm" /><svg:rect x="46mm" y="64mm" width="2mm" height="2mm" /><svg:rect x="50mm" y="64mm" width="2mm" height="2mm" /><svg:rect x="54mm" y="64mm" width="2mm" height="2mm" /><svg:rect x="56mm" y="64mm" width="2mm" height="2mm" /><svg:rect x="66mm" y="64mm" width="2mm" height="2mm" /><svg:rect x="70mm" y="64mm" width="2mm" height="2mm" /><svg:rect x="82mm" y="64mm" width="2mm" height="2mm" /><svg:rect x="84mm" y="64mm" width="2mm" height="2mm" /><svg:rect x="8mm" y="66mm" width="2mm" height="2mm" /><svg:rect x="12mm" y="66mm" width="2mm" height="2mm" /><svg:rect x="14mm" y="66mm" width="2mm" height="2mm" /><svg:rect x="18mm" y="66mm" width="2mm" height="2mm" /><svg:rect x="28mm" y="66mm" width="2mm" height="2mm" /><svg:rect x="30mm" y="66mm" width="2mm" height="2mm" /><svg:rect x="32mm" y="66mm" width="2mm" height="2mm" /><svg:rect x="36mm" y="66mm" width="2mm" height="2mm" /><svg:rect x="38mm" y="66mm" width="2mm" height="2mm" /><svg:rect x="40mm" y="66mm" width="2mm" height="2mm" /><svg:rect x="46mm" y="66mm" width="2mm" height="2mm" /><svg:rect x="56mm" y="66mm" width="2mm" height="2mm" /><svg:rect x="60mm" y="66mm" width="2mm" height="2mm" /><svg:rect x="62mm" y="66mm" width="2mm" height="2mm" /><svg:rect x="66mm" y="66mm" width="2mm" height="2mm" /><svg:rect x="68mm" y="66mm" width="2mm" height="2mm" /><svg:rect x="70mm" y="66mm" width="2mm" height="2mm" /><svg:rect x="74mm" y="66mm" width="2mm" height="2mm" /><svg:rect x="76mm" y="66mm" width="2mm" height="2mm" /><svg:rect x="78mm" y="66mm" width="2mm" height="2mm" /><svg:rect x="80mm" y="66mm" width="2mm" height="2mm" /><svg:rect x="82mm" y="66mm" width="2mm" height="2mm" /><svg:rect x="84mm" y="66mm" width="2mm" height="2mm" /><svg:rect x="88mm" y="66mm" width="2mm" height="2mm" /><svg:rect x="8mm" y="68mm" width="2mm" height="2mm" /><svg:rect x="14mm" y="68mm" width="2mm" height="2mm" /><svg:rect x="16mm" y="68mm" width="2mm" height="2mm" /><svg:rect x="20mm" y="68mm" width="2mm" height="2mm" /><svg:rect x="32mm" y="68mm" width="2mm" height="2mm" /><svg:rect x="36mm" y="68mm" width="2mm" height="2mm" /><svg:rect x="38mm" y="68mm" width="2mm" height="2mm" /><svg:rect x="42mm" y="68mm" width="2mm" height="2mm" /><svg:rect x="48mm" y="68mm" width="2mm" height="2mm" /><svg:rect x="50mm" y="68mm" width="2mm" height="2mm" /><svg:rect x="56mm" y="68mm" width="2mm" height="2mm" /><svg:rect x="58mm" y="68mm" width="2mm" height="2mm" /><svg:rect x="62mm" y="68mm" width="2mm" height="2mm" /><svg:rect x="66mm" y="68mm" width="2mm" height="2mm" /><svg:rect x="72mm" y="68mm" width="2mm" height="2mm" /><svg:rect x="74mm" y="68mm" width="2mm" height="2mm" /><svg:rect x="76mm" y="68mm" width="2mm" height="2mm" /><svg:rect x="78mm" y="68mm" width="2mm" height="2mm" /><svg:rect x="84mm" y="68mm" width="2mm" height="2mm" /><svg:rect x="8mm" y="70mm" width="2mm" height="2mm" /><svg:rect x="12mm" y="70mm" width="2mm" height="2mm" /><svg:rect x="16mm" y="70mm" width="2mm" height="2mm" /><svg:rect x="18mm" y="70mm" width="2mm" height="2mm" /><svg:rect x="24mm" y="70mm" width="2mm" height="2mm" /><svg:rect x="26mm" y="70mm" width="2mm" height="2mm" /><svg:rect x="28mm" y="70mm" width="2mm" height="2mm" /><svg:rect x="34mm" y="70mm" width="2mm" height="2mm" /><svg:rect x="40mm" y="70mm" width="2mm" height="2mm" /><svg:rect x="42mm" y="70mm" width="2mm" height="2mm" /><svg:rect x="44mm" y="70mm" width="2mm" height="2mm" /><svg:rect x="46mm" y="70mm" width="2mm" height="2mm" /><svg:rect x="48mm" y="70mm" width="2mm" height="2mm" /><svg:rect x="52mm" y="70mm" width="2mm" height="2mm" /><svg:rect x="56mm" y="70mm" width="2mm" height="2mm" /><svg:rect x="58mm" y="70mm" width="2mm" height="2mm" /><svg:rect x="62mm" y="70mm" width="2mm" height="2mm" /><svg:rect x="64mm" y="70mm" width="2mm" height="2mm" /><svg:rect x="72mm" y="70mm" width="2mm" height="2mm" /><svg:rect x="74mm" y="70mm" width="2mm" height="2mm" /><svg:rect x="76mm" y="70mm" width="2mm" height="2mm" /><svg:rect x="78mm" y="70mm" width="2mm" height="2mm" /><svg:rect x="80mm" y="70mm" width="2mm" height="2mm" /><svg:rect x="82mm" y="70mm" width="2mm" height="2mm" /><svg:rect x="8mm" y="72mm" width="2mm" height="2mm" /><svg:rect x="14mm" y="72mm" width="2mm" height="2mm" /><svg:rect x="16mm" y="72mm" width="2mm" height="2mm" /><svg:rect x="18mm" y="72mm" width="2mm" height="2mm" /><svg:rect x="20mm" y="72mm" width="2mm" height="2mm" /><svg:rect x="22mm" y="72mm" width="2mm" height="2mm" /><svg:rect x="28mm" y="72mm" width="2mm" height="2mm" /><svg:rect x="30mm" y="72mm" width="2mm" height="2mm" /><svg:rect x="32mm" y="72mm" width="2mm" height="2mm" /><svg:rect x="34mm" y="72mm" width="2mm" height="2mm" /><svg:rect x="46mm" y="72mm" width="2mm" height="2mm" /><svg:rect x="54mm" y="72mm" width="2mm" height="2mm" /><svg:rect x="56mm" y="72mm" width="2mm" height="2mm" /><svg:rect x="60mm" y="72mm" width="2mm" height="2mm" /><svg:rect x="66mm" y="72mm" width="2mm" height="2mm" /><svg:rect x="72mm" y="72mm" width="2mm" height="2mm" /><svg:rect x="74mm" y="72mm" width="2mm" height="2mm" /><svg:rect x="76mm" y="72mm" width="2mm" height="2mm" /><svg:rect x="78mm" y="72mm" width="2mm" height="2mm" /><svg:rect x="80mm" y="72mm" width="2mm" height="2mm" /><svg:rect x="84mm" y="72mm" width="2mm" height="2mm" /><svg:rect x="24mm" y="74mm" width="2mm" height="2mm" /><svg:rect x="34mm" y="74mm" width="2mm" height="2mm" /><svg:rect x="36mm" y="74mm" width="2mm" height="2mm" /><svg:rect x="38mm" y="74mm" width="2mm" height="2mm" /><svg:rect x="44mm" y="74mm" width="2mm" height="2mm" /><svg:rect x="46mm" y="74mm" width="2mm" height="2mm" /><svg:rect x="48mm" y="74mm" width="2mm" height="2mm" /><svg:rect x="52mm" y="74mm" width="2mm" height="2mm" /><svg:rect x="54mm" y="74mm" width="2mm" height="2mm" /><svg:rect x="60mm" y="74mm" width="2mm" height="2mm" /><svg:rect x="64mm" y="74mm" width="2mm" height="2mm" /><svg:rect x="66mm" y="74mm" width="2mm" height="2mm" /><svg:rect x="68mm" y="74mm" width="2mm" height="2mm" /><svg:rect x="70mm" y="74mm" width="2mm" height="2mm" /><svg:rect x="72mm" y="74mm" width="2mm" height="2mm" /><svg:rect x="80mm" y="74mm" width="2mm" height="2mm" /><svg:rect x="82mm" y="74mm" width="2mm" height="2mm" /><svg:rect x="84mm" y="74mm" width="2mm" height="2mm" /><svg:rect x="88mm" y="74mm" width="2mm" height="2mm" /><svg:rect x="8mm" y="76mm" width="2mm" height="2mm" /><svg:rect x="10mm" y="76mm" width="2mm" height="2mm" /><svg:rect x="12mm" y="76mm" width="2mm" height="2mm" /><svg:rect x="14mm" y="76mm" width="2mm" height="2mm" /><svg:rect x="16mm" y="76mm" width="2mm" height="2mm" /><svg:rect x="18mm" y="76mm" width="2mm" height="2mm" /><svg:rect x="20mm" y="76mm" width="2mm" height="2mm" /><svg:rect x="28mm" y="76mm" width="2mm" height="2mm" /><svg:rect x="30mm" y="76mm" width="2mm" height="2mm" /><svg:rect x="36mm" y="76mm" width="2mm" height="2mm" /><svg:rect x="38mm" y="76mm" width="2mm" height="2mm" /><svg:rect x="40mm" y="76mm" width="2mm" height="2mm" /><svg:rect x="46mm" y="76mm" width="2mm" height="2mm" /><svg:rect x="48mm" y="76mm" width="2mm" height="2mm" /><svg:rect x="54mm" y="76mm" width="2mm" height="2mm" /><svg:rect x="56mm" y="76mm" width="2mm" height="2mm" /><svg:rect x="62mm" y="76mm" width="2mm" height="2mm" /><svg:rect x="64mm" y="76mm" width="2mm" height="2mm" /><svg:rect x="72mm" y="76mm" width="2mm" height="2mm" /><svg:rect x="76mm" y="76mm" width="2mm" height="2mm" /><svg:rect x="80mm" y="76mm" width="2mm" height="2mm" /><svg:rect x="86mm" y="76mm" width="2mm" height="2mm" /><svg:rect x="8mm" y="78mm" width="2mm" height="2mm" /><svg:rect x="20mm" y="78mm" width="2mm" height="2mm" /><svg:rect x="28mm" y="78mm" width="2mm" height="2mm" /><svg:rect x="32mm" y="78mm" width="2mm" height="2mm" /><svg:rect x="36mm" y="78mm" width="2mm" height="2mm" /><svg:rect x="52mm" y="78mm" width="2mm" height="2mm" /><svg:rect x="56mm" y="78mm" width="2mm" height="2mm" /><svg:rect x="58mm" y="78mm" width="2mm" height="2mm" /><svg:rect x="60mm" y="78mm" width="2mm" height="2mm" /><svg:rect x="70mm" y="78mm" width="2mm" height="2mm" /><svg:rect x="72mm" y="78mm" width="2mm" height="2mm" /><svg:rect x="80mm" y="78mm" width="2mm" height="2mm" /><svg:rect x="82mm" y="78mm" width="2mm" height="2mm" /><svg:rect x="86mm" y="78mm" width="2mm" height="2mm" /><svg:rect x="88mm" y="78mm" width="2mm" height="2mm" /><svg:rect x="8mm" y="80mm" width="2mm" height="2mm" /><svg:rect x="12mm" y="80mm" width="2mm" height="2mm" /><svg:rect x="14mm" y="80mm" width="2mm" height="2mm" /><svg:rect x="16mm" y="80mm" width="2mm" height="2mm" /><svg:rect x="20mm" y="80mm" width="2mm" height="2mm" /><svg:rect x="24mm" y="80mm" width="2mm" height="2mm" /><svg:rect x="28mm" y="80mm" width="2mm" height="2mm" /><svg:rect x="36mm" y="80mm" width="2mm" height="2mm" /><svg:rect x="40mm" y="80mm" width="2mm" height="2mm" /><svg:rect x="42mm" y="80mm" width="2mm" height="2mm" /><svg:rect x="44mm" y="80mm" width="2mm" height="2mm" /><svg:rect x="46mm" y="80mm" width="2mm" height="2mm" /><svg:rect x="48mm" y="80mm" width="2mm" height="2mm" /><svg:rect x="54mm" y="80mm" width="2mm" height="2mm" /><svg:rect x="56mm" y="80mm" width="2mm" height="2mm" /><svg:rect x="60mm" y="80mm" width="2mm" height="2mm" /><svg:rect x="66mm" y="80mm" width="2mm" height="2mm" /><svg:rect x="72mm" y="80mm" width="2mm" height="2mm" /><svg:rect x="74mm" y="80mm" width="2mm" height="2mm" /><svg:rect x="76mm" y="80mm" width="2mm" height="2mm" /><svg:rect x="78mm" y="80mm" width="2mm" height="2mm" /><svg:rect x="80mm" y="80mm" width="2mm" height="2mm" /><svg:rect x="82mm" y="80mm" width="2mm" height="2mm" /><svg:rect x="88mm" y="80mm" width="2mm" height="2mm" /><svg:rect x="8mm" y="82mm" width="2mm" height="2mm" /><svg:rect x="12mm" y="82mm" width="2mm" height="2mm" /><svg:rect x="14mm" y="82mm" width="2mm" height="2mm" /><svg:rect x="16mm" y="82mm" width="2mm" height="2mm" /><svg:rect x="20mm" y="82mm" width="2mm" height="2mm" /><svg:rect x="24mm" y="82mm" width="2mm" height="2mm" /><svg:rect x="26mm" y="82mm" width="2mm" height="2mm" /><svg:rect x="28mm" y="82mm" width="2mm" height="2mm" /><svg:rect x="36mm" y="82mm" width="2mm" height="2mm" /><svg:rect x="38mm" y="82mm" width="2mm" height="2mm" /><svg:rect x="40mm" y="82mm" width="2mm" height="2mm" /><svg:rect x="44mm" y="82mm" width="2mm" height="2mm" /><svg:rect x="52mm" y="82mm" width="2mm" height="2mm" /><svg:rect x="54mm" y="82mm" width="2mm" height="2mm" /><svg:rect x="56mm" y="82mm" width="2mm" height="2mm" /><svg:rect x="58mm" y="82mm" width="2mm" height="2mm" /><svg:rect x="60mm" y="82mm" width="2mm" height="2mm" /><svg:rect x="68mm" y="82mm" width="2mm" height="2mm" /><svg:rect x="70mm" y="82mm" width="2mm" height="2mm" /><svg:rect x="72mm" y="82mm" width="2mm" height="2mm" /><svg:rect x="74mm" y="82mm" width="2mm" height="2mm" /><svg:rect x="78mm" y="82mm" width="2mm" height="2mm" /><svg:rect x="88mm" y="82mm" width="2mm" height="2mm" /><svg:rect x="8mm" y="84mm" width="2mm" height="2mm" /><svg:rect x="12mm" y="84mm" width="2mm" height="2mm" /><svg:rect x="14mm" y="84mm" width="2mm" height="2mm" /><svg:rect x="16mm" y="84mm" width="2mm" height="2mm" /><svg:rect x="20mm" y="84mm" width="2mm" height="2mm" /><svg:rect x="24mm" y="84mm" width="2mm" height="2mm" /><svg:rect x="28mm" y="84mm" width="2mm" height="2mm" /><svg:rect x="30mm" y="84mm" width="2mm" height="2mm" /><svg:rect x="34mm" y="84mm" width="2mm" height="2mm" /><svg:rect x="36mm" y="84mm" width="2mm" height="2mm" /><svg:rect x="38mm" y="84mm" width="2mm" height="2mm" /><svg:rect x="50mm" y="84mm" width="2mm" height="2mm" /><svg:rect x="52mm" y="84mm" width="2mm" height="2mm" /><svg:rect x="56mm" y="84mm" width="2mm" height="2mm" /><svg:rect x="62mm" y="84mm" width="2mm" height="2mm" /><svg:rect x="64mm" y="84mm" width="2mm" height="2mm" /><svg:rect x="70mm" y="84mm" width="2mm" height="2mm" /><svg:rect x="72mm" y="84mm" width="2mm" height="2mm" /><svg:rect x="74mm" y="84mm" width="2mm" height="2mm" /><svg:rect x="76mm" y="84mm" width="2mm" height="2mm" /><svg:rect x="78mm" y="84mm" width="2mm" height="2mm" /><svg:rect x="80mm" y="84mm" width="2mm" height="2mm" /><svg:rect x="84mm" y="84mm" width="2mm" height="2mm" /><svg:rect x="86mm" y="84mm" width="2mm" height="2mm" /><svg:rect x="8mm" y="86mm" width="2mm" height="2mm" /><svg:rect x="20mm" y="86mm" width="2mm" height="2mm" /><svg:rect x="26mm" y="86mm" width="2mm" height="2mm" /><svg:rect x="36mm" y="86mm" width="2mm" height="2mm" /><svg:rect x="38mm" y="86mm" width="2mm" height="2mm" /><svg:rect x="44mm" y="86mm" width="2mm" height="2mm" /><svg:rect x="48mm" y="86mm" width="2mm" height="2mm" /><svg:rect x="50mm" y="86mm" width="2mm" height="2mm" /><svg:rect x="52mm" y="86mm" width="2mm" height="2mm" /><svg:rect x="58mm" y="86mm" width="2mm" height="2mm" /><svg:rect x="60mm" y="86mm" width="2mm" height="2mm" /><svg:rect x="64mm" y="86mm" width="2mm" height="2mm" /><svg:rect x="68mm" y="86mm" width="2mm" height="2mm" /><svg:rect x="70mm" y="86mm" width="2mm" height="2mm" /><svg:rect x="72mm" y="86mm" width="2mm" height="2mm" /><svg:rect x="74mm" y="86mm" width="2mm" height="2mm" /><svg:rect x="76mm" y="86mm" width="2mm" height="2mm" /><svg:rect x="80mm" y="86mm" width="2mm" height="2mm" /><svg:rect x="82mm" y="86mm" width="2mm" height="2mm" /><svg:rect x="86mm" y="86mm" width="2mm" height="2mm" /><svg:rect x="8mm" y="88mm" width="2mm" height="2mm" /><svg:rect x="10mm" y="88mm" width="2mm" height="2mm" /><svg:rect x="12mm" y="88mm" width="2mm" height="2mm" /><svg:rect x="14mm" y="88mm" width="2mm" height="2mm" /><svg:rect x="16mm" y="88mm" width="2mm" height="2mm" /><svg:rect x="18mm" y="88mm" width="2mm" height="2mm" /><svg:rect x="20mm" y="88mm" width="2mm" height="2mm" /><svg:rect x="30mm" y="88mm" width="2mm" height="2mm" /><svg:rect x="32mm" y="88mm" width="2mm" height="2mm" /><svg:rect x="34mm" y="88mm" width="2mm" height="2mm" /><svg:rect x="38mm" y="88mm" width="2mm" height="2mm" /><svg:rect x="42mm" y="88mm" width="2mm" height="2mm" /><svg:rect x="44mm" y="88mm" width="2mm" height="2mm" /><svg:rect x="46mm" y="88mm" width="2mm" height="2mm" /><svg:rect x="48mm" y="88mm" width="2mm" height="2mm" /><svg:rect x="50mm" y="88mm" width="2mm" height="2mm" /><svg:rect x="58mm" y="88mm" width="2mm" height="2mm" /><svg:rect x="60mm" y="88mm" width="2mm" height="2mm" /><svg:rect x="66mm" y="88mm" width="2mm" height="2mm" /><svg:rect x="70mm" y="88mm" width="2mm" height="2mm" /><svg:rect x="74mm" y="88mm" width="2mm" height="2mm" /><svg:rect x="78mm" y="88mm" width="2mm" height="2mm" /><svg:rect x="80mm" y="88mm" width="2mm" height="2mm" /><svg:rect x="82mm" y="88mm" width="2mm" height="2mm" /><svg:rect x="84mm" y="88mm" width="2mm" height="2mm" /></svg>